<?xml version="1.0" encoding="UTF-8"?> <svg xmlns="http://www.w3.org/2000/svg" xmlns:xlink="http://www.w3.org/1999/xlink" version="1.1" id="Layer_1" x="0px" y="0px" viewBox="0 0 2850.57 723.15" style="enable-background:new 0 0 2850.57 723.15;" xml:space="preserve"> <style type="text/css"> .st0{fill:#2B2D6D;} .st1{fill:#1DBA9B;} .st2{fill:#EB3C85;} </style> <g> <g> <rect x="1562.22" y="42.58" class="st0" width="15.4" height="643.16"></rect> <g> <path class="st0" d="M1835.69,206.01l-28.96,27.65c-11.97-13.06-27.29-19.45-46.22-19.45c-17.26,0-31.74,6.38-43.72,19.14 s-17.82,28.56-17.82,47.71c0,19.14,5.85,34.94,17.54,47.7c11.97,12.46,26.45,18.84,43.99,18.84c16.99,0,31.19-5.47,42.32-16.41 v-28.57h-50.96V261.3h91.05v85.69c-18.1,26.43-48.73,43.14-82.42,43.14c-29.24,0-53.74-10.33-74.07-30.99 c-20.33-20.97-30.35-46.8-30.35-78.09c0-31.3,10.03-57.13,30.35-78.09c20.33-20.97,44.83-31.3,74.07-31.3 C1790.31,171.68,1815.37,183.23,1835.69,206.01z"></path> <path class="st0" d="M1874.13,386.81V175.02h42.88v169.24h75.74v42.54h-118.62V386.81z"></path> <path class="st0" d="M2032.56,203.58c20.33-21.27,44.83-31.91,73.51-31.91s53.18,10.64,73.23,31.91 c20.33,21.27,30.35,47.1,30.35,77.79s-10.03,56.82-30.08,78.09c-20.05,20.97-44.55,31.6-73.51,31.6 c-28.68,0-53.18-10.64-73.51-31.6c-20.05-21.27-30.07-47.4-30.07-78.09S2012.52,224.85,2032.56,203.58z M2062.91,329.38 c11.69,12.76,26.17,19.14,43.16,19.14c16.98,0,31.19-6.38,42.88-19.45c11.97-13.07,17.82-29.17,17.82-47.71 c0-18.54-5.85-34.34-17.54-47.4c-11.7-13.07-26.18-19.75-43.16-19.75c-16.99,0-31.47,6.69-43.16,19.75 c-11.7,13.06-17.54,28.86-17.54,47.4C2045.37,300.51,2051.22,316.31,2062.91,329.38z"></path> <path class="st0" d="M2238.34,386.81V175.02h77.13c15.59,0,28.68,5.17,39.26,15.5c10.86,10.03,16.15,23.09,16.15,38.59 c0,20.36-9.19,36.46-24.78,42.54c24.78,4.86,38.99,25.52,38.99,52.57c0,17.93-5.57,33.12-16.99,44.97 c-11.14,11.85-25.06,17.63-42.04,17.63h-87.72V386.81z M2280.39,259.49h28.12c12.25,0,20.88-9.42,20.88-22.48 c0-12.46-8.63-21.88-20.61-21.88h-28.4v44.36H2280.39z M2280.39,346.39h37.03c14.48,0,25.06-11.24,25.06-25.83 c0-14.58-10.58-24.91-25.34-24.91h-36.76v50.74H2280.39z"></path> <path class="st0" d="M2394.27,386.81l80.19-211.78h38.14l80.19,211.78h-45.66l-13.09-35.55h-81.03l-13.08,35.55H2394.27z M2465.28,313.88h56.52l-28.12-76.87L2465.28,313.88z"></path> <path class="st0" d="M2615.92,386.81V175.02h42.88v169.24h75.74v42.54h-118.62V386.81z"></path> </g> <path class="st1" d="M414.65,262.63h50.66c0-117.63-95.36-213-213-213c-117.63,0-213,95.36-213,213s95.36,213,213,213l0,0v-50.67 l0,0c-89.65,0-162.33-72.67-162.33-162.33S162.66,100.3,252.31,100.3C341.97,100.3,414.65,172.97,414.65,262.63"></path> <path class="st2" d="M89.98,475.2H39.32c0,117.63,95.36,213,213,213c117.63,0,213-95.36,213-213s-95.36-213-213-213l0,0v50.67l0,0 c89.65,0,162.33,72.67,162.33,162.33s-72.68,162.33-162.33,162.33C162.66,637.53,89.98,564.85,89.98,475.2"></path> <g> <path class="st0" d="M1356.95,313.57l29.2-77.61l28.92,77.61H1356.95z M1283.94,387.19h46.95l13.45-35.89h83.32l13.46,35.89 h46.95l-82.46-213.81h-39.22L1283.94,387.19z M1166.85,346.39v-51.23h37.79c15.46,0,26.06,10.73,26.06,25.15 c0,14.73-10.88,26.08-25.77,26.08L1166.85,346.39L1166.85,346.39z M1166.85,258.65v-44.78h29.2c12.31,0,21.19,9.51,21.19,22.09 c0,13.19-8.88,22.7-21.47,22.7h-28.92V258.65z M1123.61,387.19h90.19c34.93,0,60.7-26.99,60.7-63.19 c0-26.69-13.74-48.16-40.08-53.07c16.04-6.14,25.48-22.39,25.48-42.95c0-31.6-25.19-54.6-56.97-54.6h-79.31v213.81H1123.61z M952.69,387.19h138.29v-42.95h-94.2v-45.7h86.18v-42.03h-86.18v-40.19h92.19v-42.95H952.68L952.69,387.19L952.69,387.19z M739.11,387.19h44.09v-91.41h86.46v91.41h44.09V173.38h-44.09v79.45H783.2v-79.45h-44.09V387.19z M555.87,343.32 c12.31,25.77,38.94,47.24,81.88,47.24c50.68,0,74.16-27.61,74.16-65.34c0-30.68-14.89-48.78-50.96-63.5 c-32.35-13.49-48.1-14.11-48.1-31.9c0-10.13,10.02-17.49,26.34-17.49c17.18,0,28.92,7.67,36.07,18.41l29.49-25.16 C692.44,187.17,671.82,170,638.04,170c-36.65,0-68.71,22.08-68.71,60.43c0,34.35,19.76,50.92,48.39,61.97 c27.77,11.04,50.1,15.64,50.1,34.35c0,10.12-7.73,21.17-29.78,21.17c-23.19,0-40.65-11.35-50.1-28.22L555.87,343.32z"></path> </g> <g> <polygon class="st0" points="620.6,453.56 546.82,453.56 546.82,463.69 578.33,463.69 578.33,567 588.93,567 588.93,463.69 620.6,463.69 "></polygon> <path class="st0" d="M653.82,482.21c-22.96,0-39.62,18.33-39.62,43.59v0.48c0,25.1,16.42,42.63,39.93,42.63 c12.89,0,23.6-4.86,31.83-14.44l0.76-0.88l-6.88-6.81l-0.88,0.93c-7.26,7.76-14.92,11.22-24.83,11.22 c-16.7,0-28.78-12.33-29.75-30.14h66.91l0.11-1.12c0.16-1.64,0.16-4.1,0.16-4.1C691.57,499.99,675.34,482.21,653.82,482.21z M624.72,519.14c1.23-15.22,13.77-26.95,29.1-26.95c14.67,0,26.35,11.74,27.11,26.95H624.72z"></path> <rect x="707.33" y="453.56" class="st0" width="10.29" height="113.44"></rect> <polygon class="st0" points="865.23,501.79 803.3,501.79 803.3,453.56 792.69,453.56 792.69,567 803.3,567 803.3,511.92 865.23,511.92 865.23,567 875.83,567 875.83,453.56 865.23,453.56 "></polygon> <path class="st0" d="M959.49,496.87c-4.98-7.73-15.35-14.66-29.95-14.66c-22.92,0-40.87,19.08-40.87,43.43 c0,24.76,17.57,43.43,40.87,43.43c14.6,0,24.97-6.92,29.95-14.66V567h10.29v-82.72h-10.29V496.87z M960.43,525.64 c0,19.38-12.99,33.45-30.89,33.45c-17.43,0-30.58-14.38-30.58-33.45c0-19.07,13.15-33.45,30.58-33.45 C947.44,492.19,960.43,506.26,960.43,525.64z"></path> <path class="st0" d="M1106.02,483.01c-11.87,0-20.39,4.21-25.43,12.53v-41.98h-10.29V567h10.29v-44.39 c0-18,9.31-29.63,23.71-29.63c13.46,0,22.15,9.75,22.15,24.85v49.16h10.3v-50.75C1136.75,496.06,1124.69,483.01,1106.02,483.01z"></path> <path class="st0" d="M1192.32,482.21c-24.27,0-42.58,18.67-42.58,43.43c0,24.76,18.3,43.43,42.58,43.43 c24.28,0,42.59-18.67,42.59-43.43C1234.9,500.88,1216.59,482.21,1192.32,482.21z M1224.61,525.64 c0,19.07-13.88,33.45-32.29,33.45s-32.29-14.38-32.29-33.45c0-19.07,13.88-33.45,32.29-33.45 C1210.72,492.19,1224.61,506.57,1224.61,525.64z"></path> <path class="st0" d="M1333.06,483.01c-13.47,0-22.83,5.51-27.29,16c-4.23-10.22-12.88-16-24.19-16 c-10.79,0-18.64,4.14-23.4,12.32v-11.05h-10.29v82.71h10.29v-44.38c0-18,8.39-29.63,21.37-29.63c11.85,0,19.5,9.76,19.5,24.86 V567h10.29v-45.17c0-17.52,8.51-28.84,21.69-28.84c11.93,0,19.34,9.52,19.34,24.86v49.16h10.29v-50.74 C1360.67,496.06,1349.83,483.01,1333.06,483.01z"></path> <path class="st0" d="M1414.46,482.21c-22.95,0-39.62,18.33-39.62,43.59v0.48c0,25.1,16.42,42.63,39.93,42.63 c12.89,0,23.6-4.86,31.83-14.44l0.76-0.88l-6.88-6.81l-0.88,0.93c-7.26,7.76-14.92,11.22-24.83,11.22 c-16.7,0-28.78-12.33-29.75-30.14h66.91l0.11-1.12c0.16-1.64,0.16-4.1,0.16-4.1C1452.21,499.99,1435.98,482.21,1414.46,482.21z M1385.36,519.14c1.23-15.22,13.77-26.95,29.1-26.95c14.67,0,26.36,11.74,27.11,26.95H1385.36z"></path> <path class="st0" d="M1505.87,483.19c-1.18-0.18-2.77-0.18-3.92-0.18c-14.14,0-21.55,6.14-25.43,12.81v-11.53h-10.29V567h10.29 v-45.17c0-13.01,6.33-28.2,24.18-28.2c1.82,0,3.94,0.16,4.78,0.3l1.46,0.25v-10.83L1505.87,483.19z"></path> <path class="st0" d="M1027.17,501.5c-16.03-7.01-23.59-11.63-23.59-23.72c0-10.51,7.58-17.57,18.86-17.57 c9.34,0,15.8,3.68,19.74,11.25l1.79,3.44l9.24-5.27l-1.62-3.18c-5.64-11.04-15.72-16.88-29.16-16.88 c-17.13,0-29.56,11.93-29.56,28.37c0,18.87,12.9,25.96,29.77,33.27c20.07,8.64,25.56,14.52,25.56,27.35 c0,12.98-9.29,21.04-24.24,21.04c-14.34,0-25.22-7.89-30.63-22.21l-1.39-3.67l-9.71,4.19l1.15,3.29 c6.43,18.45,21.22,29.03,40.58,29.03c21.23,0,34.95-12.44,34.95-31.68C1058.93,518.77,1048.23,510.55,1027.17,501.5z"></path> </g> </g> <g> <path class="st0" d="M1654.95,457.7h36.76c19.29,0,35.11,14.67,35.11,34.55c0,20.05-15.83,34.55-35.11,34.55h-23.9v44.49h-12.86 V457.7z M1691.22,515.07c13.02,0,22.75-9.78,22.75-22.82s-9.73-22.82-22.75-22.82h-23.41v45.63h23.41V515.07z"></path> <path class="st0" d="M1781.06,486.71c16.32,0,25.39,7.66,29.51,14.67v-12.22h12.2v82.14h-12.2v-12.22 c-4.12,7.01-13.19,14.67-29.51,14.67c-23.24,0-42.04-18.42-42.04-43.51C1739.02,505.12,1757.82,486.71,1781.06,486.71z M1781.06,562.49c17.8,0,30.99-13.85,30.99-32.27c0-18.42-13.19-32.27-30.99-32.27c-17.14,0-29.84,13.85-29.84,32.27 C1751.22,548.64,1763.92,562.49,1781.06,562.49z"></path> <path class="st0" d="M1851.45,500.4h-10.55v-11.25h10.55v-31.46h12.2v31.46h18.46v11.25h-18.46v70.9h-12.2V500.4z"></path> <path class="st0" d="M1898.1,467.31c0-4.73,3.96-8.15,8.24-8.15s8.24,3.42,8.24,8.15s-3.96,8.15-8.24,8.15 S1898.1,472.04,1898.1,467.31z M1900.24,489.15h12.2v82.14h-12.2V489.15z"></path> <path class="st0" d="M1931.73,530.55c0-26.57,17.8-43.84,41.54-43.84c23.08,0,38.25,18.25,38.25,40.91c0,0,0,2.77-0.16,5.22 h-67.43c0.66,18.09,12.2,29.66,29.67,29.66c12.03,0,18.63-4.24,25.55-11.41l8.08,7.82c-10.39,11.41-21.6,14.51-33.63,14.51 c-24.73,0-41.87-16.62-41.87-42.21L1931.73,530.55L1931.73,530.55z M1998.49,522.24c0-13.2-11.21-24.28-25.22-24.28 c-15.17,0-27.7,10.92-28.52,24.28H1998.49z"></path> <path class="st0" d="M2030.14,489.15h12.2V503c4.29-8.8,13.68-15.16,26.71-15.16c19.12,0,30.83,12.55,30.83,30.97v52.48h-12.2 v-49.87c0-13.69-8.24-22.33-21.76-22.33c-13.85,0-23.57,9.29-23.57,23.14v49.06h-12.2v-82.14H2030.14z"></path> <path class="st0" d="M2127.9,500.4h-10.55v-11.25h10.55v-31.46h12.2v31.46h18.46v11.25h-18.46v70.9h-12.2V500.4z"></path> <path class="st0" d="M2226.15,541.31c5.11,13.53,15.99,20.54,28.85,20.54c15.5,0,23.08-8.47,23.08-19.23 c0-13.36-9.4-18.09-25.39-25.26c-17.47-7.82-30.33-14.83-30.33-32.76c0-16.79,13.85-29.01,32.48-29.01 c15.17,0,25.06,7.33,31.32,18.58l-10.72,6.03c-4.12-7.82-10.22-12.88-20.77-12.88s-19.45,7.01-19.45,16.95 c0,11.41,9.73,15.97,23.57,22c21.1,9.13,32.15,16.95,32.15,36.18c0,17.6-12.53,31.13-36.1,31.13c-18.13,0-33.14-9.29-39.73-27.22 L2226.15,541.31z"></path> <path class="st0" d="M2308.74,530.55c0-26.57,17.8-43.84,41.54-43.84c23.08,0,38.25,18.25,38.25,40.91c0,0,0,2.77-0.16,5.22 h-67.43c0.66,18.09,12.2,29.66,29.67,29.66c12.03,0,18.63-4.24,25.55-11.41l8.08,7.82c-10.39,11.41-21.6,14.51-33.63,14.51 c-24.73,0-41.87-16.62-41.87-42.21L2308.74,530.55L2308.74,530.55z M2375.51,522.24c0-13.2-11.21-24.28-25.22-24.28 c-15.17,0-27.7,10.92-28.52,24.28H2375.51z"></path> <path class="st0" d="M2407.15,489.15h12.2V503c4.12-8.8,13.02-15.16,25.55-15.16c1.81,0,3.96,0.16,5.11,0.33v13.04 c-1.98-0.49-4.78-0.81-8.24-0.81c-12.86,0-22.42,9.29-22.42,23.14v47.75h-12.2L2407.15,489.15L2407.15,489.15z"></path> <path class="st0" d="M2460.4,489.15h12.69l27.2,62.91l27.04-62.91h12.69l-35.61,82.14H2496L2460.4,489.15z"></path> <path class="st0" d="M2553.71,467.31c0-4.73,3.96-8.15,8.24-8.15s8.24,3.42,8.24,8.15s-3.96,8.15-8.24,8.15 S2553.71,472.04,2553.71,467.31z M2555.85,489.15h12.2v82.14h-12.2V489.15z"></path> <path class="st0" d="M2631.52,486.71c12.53,0,23.41,4.24,31.49,12.39l-7.42,8.48c-6.26-6.36-14.67-9.62-24.07-9.62 c-18.46,0-31.98,13.85-31.98,32.27c0,18.42,13.52,32.27,31.98,32.27c9.4,0,17.8-3.26,24.07-9.62l7.42,8.48 c-8.08,8.15-18.96,12.39-31.49,12.39c-24.4,0-44.18-18.42-44.18-43.51C2587.34,505.12,2607.12,486.71,2631.52,486.71z"></path> <path class="st0" d="M2676.52,530.55c0-26.57,17.8-43.84,41.54-43.84c23.08,0,38.25,18.25,38.25,40.91c0,0,0,2.77-0.16,5.22 h-67.43c0.66,18.09,12.2,29.66,29.67,29.66c12.03,0,18.63-4.24,25.55-11.41l8.08,7.82c-10.39,11.41-21.6,14.51-33.63,14.51 c-24.73,0-41.87-16.62-41.87-42.21L2676.52,530.55L2676.52,530.55z M2743.28,522.24c0-13.2-11.21-24.28-25.22-24.28 c-15.17,0-27.7,10.92-28.52,24.28H2743.28z"></path> <path class="st0" d="M2778.89,548.8c3.3,7.99,10.88,13.2,21.43,13.2c13.19,0,17.8-5.54,17.8-12.22c0-8.64-7.25-12.22-19.95-16.62 c-13.52-4.89-23.41-10.92-23.41-23.63c0-13.53,10.55-22.82,25.88-22.82c10.72,0,19.62,5.54,24.56,14.5l-9.4,5.87 c-2.8-5.7-8.57-9.29-14.84-9.29c-9.07,0-14.01,5.22-14.01,11.08c0,7.66,7.09,10.43,17.15,14.18 c17.64,6.36,26.21,12.55,26.21,26.89c0,13.85-10.22,23.31-29.84,23.31c-14.84,0-27.2-6.68-31.98-20.21L2778.89,548.8z"></path> </g> </g> </svg> 